<svg xmlns="http://www.w3.org/2000/svg" xmlns:xlink="http://www.w3.org/1999/xlink" viewBox="0 0 106.55 151.22"><defs><style>.cls-1{fill:none;}.cls-2{clip-path:url(#clip-path);}.cls-3{fill:#0395d9;}.cls-4{fill:#d42231;}.cls-5{fill:#e9b004;}.cls-6{fill:#0fd502;}</style><clipPath id="clip-path" transform="translate(-80.78 -14.78)"><rect class="cls-1" width="259" height="259"/></clipPath></defs><title>Asset 1</title><g id="Layer_2" data-name="Layer 2"><g id="Layer_1-2" data-name="Layer 1"><g class="cls-2"><path class="cls-3" d="M105,31a98,98,0,0,1,16-10c6.76-3.37,11-5.48,17-6,3.39-.29,13.45-1.16,20,5,7.16,6.73,6,18,5,28a69.56,69.56,0,0,1-7,24,34.83,34.83,0,0,0-3-19C145.76,38,126.71,29.22,105,31Z" transform="translate(-80.78 -14.78)"/><path class="cls-3" d="M126.22,32.76c-.32-.09,26-10.26,36.9,14.49,0,0-3.12,16.75-7.12,24.75C156,72,161.45,42.52,126.22,32.76Z" transform="translate(-80.78 -14.78)"/><path class="cls-4" d="M142,50s-22-18-41-13S81,58,81,58s-2,11,6,24C87,82,99,45,142,50Z" transform="translate(-80.78 -14.78)"/><path class="cls-5" d="M125,57S101,68,94,87s6,27,6,27,5,5,16,7C116,121,107,76,125,57Z" transform="translate(-80.78 -14.78)"/><path class="cls-6" d="M174,42s20,29,11,45-18,19-25,23-8,5-9,6-3-14,8-34S175,43,174,42Z" transform="translate(-80.78 -14.78)"/></g><path class="cls-1" d="M141,72s4,2,0,11" transform="translate(-80.78 -14.78)"/><path class="cls-1" d="M128,80" transform="translate(-80.78 -14.78)"/><ellipse cx="137.92" cy="81.21" rx="9.61" ry="4.45" transform="translate(-67.57 166.74) rotate(-69.3)"/><path d="M120,86s14,12,11,28c0,0-2-5-3-5C128,109,120,98,120,86Z" transform="translate(-80.78 -14.78)"/><path d="M155,79s-16,18-18,22-6,10,0,30c0,0,13,32,15,35,0,0-9-32-10-40,0,0-4-11,2-24C144,102,154,85,155,79Z" transform="translate(-80.78 -14.78)"/><path d="M144,124l23,23S147,142,144,124Z" transform="translate(-80.78 -14.78)"/></g></g></svg>