<svg xmlns="http://www.w3.org/2000/svg" xmlns:xlink="http://www.w3.org/1999/xlink" viewBox="0 0 704.71 1000.12"><defs><style>.cls-1,.cls-2{fill:none;}.cls-2{stroke:#000;stroke-miterlimit:10;}.cls-3{clip-path:url(#clip-path);}.cls-4{fill:#fff;}</style><clipPath id="clip-path" transform="translate(-534.26 -97.78)"><rect class="cls-1" width="1713" height="1713"/></clipPath></defs><title>Asset 12</title><g id="Layer_2" data-name="Layer 2"><g id="LOGO"><path class="cls-2" d="M969.56,645.2s26.46,13.23,0,72.75" transform="translate(-534.26 -97.78)"/><path class="cls-2" d="M883.58,698.11" transform="translate(-534.26 -97.78)"/><g class="cls-3"><path class="cls-4" d="M694.46,205a648.35,648.35,0,0,1,105.82-66.14C845,116.62,873,102.65,912.72,99.21c22.45-1.94,88.93-7.7,132.28,33.07,47.36,44.54,39.8,118.93,33.07,185.19a460.06,460.06,0,0,1-46.3,158.73c6.28-61-9.07-103.26-19.84-125.66C964.07,251,838,193.24,694.46,205Z" transform="translate(-534.26 -97.78)"/><path class="cls-4" d="M834.83,216.67c-2.09-.58,172.14-67.86,244.06,95.84,0,0-20.67,110.78-47.12,163.69C1031.77,476.2,1067.79,281.22,834.83,216.67Z" transform="translate(-534.26 -97.78)"/><path class="cls-4" d="M939.17,330.69S793.67,211.64,668,244.71,535.73,383.61,535.73,383.61s-13.23,72.75,39.68,158.73C575.41,542.34,654.78,297.63,939.17,330.69Z" transform="translate(-534.26 -97.78)"/><path class="cls-4" d="M826.74,377S668,449.75,621.71,575.41,661.39,754,661.39,754s33.07,33.07,105.82,46.3C767.21,800.28,707.69,502.66,826.74,377Z" transform="translate(-534.26 -97.78)"/><path class="cls-4" d="M1150.82,277.78s132.28,191.8,72.75,297.63-119.05,125.66-165.35,152.12-52.91,33.07-59.53,39.68-19.84-92.59,52.91-224.87S1157.43,284.4,1150.82,277.78Z" transform="translate(-534.26 -97.78)"/></g><ellipse class="cls-4" cx="912.2" cy="537.11" rx="63.55" ry="29.42" transform="translate(-446.91 1102.81) rotate(-69.3)"/><path class="cls-4" d="M1025.15,522.5S919.33,641.55,906.1,668s-39.68,66.14,0,198.42c0,0,86,211.64,99.21,231.49,0,0-59.53-211.64-66.14-264.56,0,0-26.46-72.75,13.23-158.73C952.4,674.62,1018.54,562.18,1025.15,522.5Z" transform="translate(-534.26 -97.78)"/><path class="cls-4" d="M952.4,820.12l152.12,152.12S972.24,939.17,952.4,820.12Z" transform="translate(-534.26 -97.78)"/><path class="cls-4" d="M869.19,733.64c-.66-7-4.26-12.81-7.43-18.78-9.12-17.16-18.81-34-27.3-51.49-10.46-21.52-16.08-44.6-19.21-68.28-.39-3-.68-5.92-1-8.89a4.66,4.66,0,0,1,.18-1.17c5,.29,7.09,4.24,9.55,7.49,8.2,10.79,16.67,21.42,24.25,32.65a167.13,167.13,0,0,1,24.65,55.1c3.74,15.77,4.75,31.7.34,47.57-.61,2.2-1.93,4.2-2.93,6.29Z" transform="translate(-534.26 -97.78)"/></g></g></svg>