<svg width="26" height="26" viewBox="0 0 26 26" fill="none" xmlns="http://www.w3.org/2000/svg">
<path d="M22.1914 0H3.80859C1.70871 0 0 1.70871 0 3.80859V22.1914C0 24.2913 1.70871 26 3.80859 26H22.1914C24.2913 26 26 24.2913 26 22.1914V3.80859C26 1.70871 24.2913 0 22.1914 0ZM9.19141 20.6172H6.14453V9.95312H9.19141V20.6172ZM9.19141 8.42969H6.14453V5.38281H9.19141V8.42969ZM19.8555 20.6172H16.8086V14.5234C16.8086 13.6836 16.125 13 15.2852 13C14.4453 13 13.7617 13.6836 13.7617 14.5234V20.6172H10.7148V9.95312H13.7617V10.5274C14.5599 10.2792 15.0785 9.95312 16.0469 9.95312C18.1132 9.95531 19.8555 11.809 19.8555 13.9998V20.6172Z" fill="#4F3961"/>
</svg>
