<svg width="36" height="26" viewBox="0 0 36 26" fill="none" xmlns="http://www.w3.org/2000/svg">
<path d="M35.2583 4.06838C34.8434 2.47752 33.6275 1.22346 32.0854 0.79509C29.2683 0 17.9996 0 17.9996 0C17.9996 0 6.73134 0 3.91422 0.764946C2.40184 1.19286 1.1562 2.47774 0.741359 4.06838C0 6.97404 0 13 0 13C0 13 0 19.0563 0.741359 21.9316C1.15664 23.5223 2.37217 24.7763 3.91444 25.2047C6.761 26 18 26 18 26C18 26 29.2683 26 32.0854 25.2351C33.6277 24.8069 34.8434 23.5529 35.2587 21.9622C35.9998 19.0563 35.9998 13.0306 35.9998 13.0306C35.9998 13.0306 36.0295 6.97404 35.2583 4.06838ZM14.4119 18.567V7.43301L23.7824 13L14.4119 18.567Z" fill="#4F3961"/>
</svg>
